Coordinates
version=1
nRows=8
nColumns=40
inDegrees=yes

Units are S.I. units (second, meters, Newtons, ...)
Angles are in degrees.

endheader
time	pelvis_tilt	pelvis_list	pelvis_rotation	pelvis_tx	pelvis_ty	pelvis_tz	hip_flexion_r	hip_adduction_r	hip_rotation_r	knee_angle_r	knee_angle_r_beta	ankle_angle_r	subtalar_angle_r	mtp_angle_r	hip_flexion_l	hip_adduction_l	hip_rotation_l	knee_angle_l	knee_angle_l_beta	ankle_angle_l	subtalar_angle_l	mtp_angle_l	lumbar_extension	lumbar_bending	lumbar_rotation	arm_flex_r	arm_add_r	arm_rot_r	elbow_flex_r	pro_sup_r	wrist_flex_r	wrist_dev_r	arm_flex_l	arm_add_l	arm_rot_l	elbow_flex_l	pro_sup_l	wrist_flex_l	wrist_dev_l
     41.77750000	     -4.88896843	     -4.79940370	      9.25381150	      0.96231180	      0.91639043	      0.46372099	     -1.88413387	      3.56672405	    -17.20747015	     15.95606054	     15.95606054	     19.50959350	      1.14185622	     -2.12000628	     29.24607330	     -5.30028037	      5.80326684	     26.84842647	     26.84842647	      4.73976334	    -12.86529922	      2.07706773	     -8.14513529	      2.80237582	      6.71062417	     50.53858928	    -18.08815703	    -12.07915281	     64.68054203	     45.46776188	      0.00000000	      0.00000000	     -5.11601544	     -8.23627826	     -0.96454562	     39.64955060	     45.85516932	      0.00000000	      0.00000000
     41.79714286	     -5.02920417	     -4.76641347	      8.84049622	      0.96309049	      0.91671059	      0.45932217	     -2.09292145	      2.97274284	    -17.71220178	     16.26823118	     16.26823118	     19.11898655	      2.49926972	     -3.31288696	     29.26862299	     -4.96252630	      6.01552458	     27.85844481	     27.85844481	      6.76651751	    -13.39488730	      6.10624616	     -8.05583302	      2.78718173	      6.11137856	     51.58416829	    -17.19792456	    -11.95218647	     61.00356477	     45.59345841	      0.00000000	      0.00000000	     -5.45838610	     -8.39830538	     -2.03542550	     42.29634626	     45.99450954	      0.00000000	      0.00000000
     41.81678571	     -5.14682844	     -4.78914103	      8.37619406	      0.96397168	      0.91708124	      0.45508475	     -2.28305913	      2.53584294	    -17.64106523	     16.59907706	     16.59907706	     18.89151782	      3.07402710	     -3.55962990	     29.01457235	     -4.82419240	      5.88167198	     28.29121829	     28.29121829	      7.32494178	    -13.95782284	      6.28454776	     -8.00459090	      2.84764476	      6.43565409	     51.19097941	    -17.32299359	    -11.98708159	     59.93268847	     45.62972715	      0.00000000	      0.00000000	     -4.48373108	     -8.51059817	     -2.10250209	     42.84453209	     46.01827117	      0.00000000	      0.00000000
     41.83642857	     -5.22684565	     -4.85034178	      7.92909345	      0.96493886	      0.91751068	      0.45079940	     -2.52764977	      2.18616888	    -17.38222976	     16.85708323	     16.85708323	     18.62920321	      3.36422936	     -3.60756664	     28.68576282	     -4.75834518	      5.66145927	     28.64573196	     28.64573196	      7.80923478	    -14.35733664	      6.19135980	     -8.00782500	      2.99428051	      6.35983834	     50.53278276	    -16.97707890	    -11.90184761	     59.41829041	     45.64040337	      0.00000000	      0.00000000	     -3.63726786	     -8.68883051	     -2.09739711	     43.17450984	     46.02992518	      0.00000000	      0.00000000
     41.85607143	     -5.36730488	     -4.79472965	      7.48187983	      0.96573011	      0.91783310	      0.44626205	     -2.56754617	      1.54524125	    -17.54861225	     17.41335348	     17.41335348	     18.14126304	      4.18697019	     -4.89718621	     28.42659653	     -4.53279466	      5.39152829	     29.07363144	     29.07363144	      8.84948867	    -14.56314797	      7.44355555	     -7.87872356	      3.00725880	      6.13383943	     50.79323783	    -16.49861041	    -12.17439730	     55.59764362	     45.77726940	      0.00000000	      0.00000000	     -2.87404389	     -9.17031382	     -0.80638839	     43.54598577	     45.91882996	      0.00000000	      0.00000000
     41.87571429	     -5.46029294	     -4.77722435	      7.04034007	      0.96658886	      0.91822824	      0.44173929	     -2.58280865	      1.00593258	    -17.32688282	     18.07209966	     18.07209966	     17.87670237	      4.42842924	     -5.20680462	     28.02711538	     -4.39830776	      5.00117437	     29.28856009	     29.28856009	      9.39186316	    -14.72154779	      7.36912154	     -7.88203907	      3.06601957	      6.12928060	     49.77958042	    -16.44504884	    -12.19176574	     54.54318687	     45.80818008	      0.00000000	      0.00000000	     -1.90232498	     -9.35428273	     -0.62537531	     43.85514725	     45.91602235	      0.00000000	      0.00000000
     41.89535714	     -5.56833825	     -4.77758360	      6.61077024	      0.96735083	      0.91859563	      0.43712621	     -2.46365215	      0.42507516	    -17.20505089	     18.91778416	     18.91778416	     17.48307747	      4.73938912	     -5.98226987	     27.64255830	     -4.27264276	      4.60102666	     29.48054940	     29.48054940	      9.98061063	    -14.81161704	      7.44523150	     -7.81614282	      3.17887797	      6.05607184	     48.82339903	    -16.33370343	    -12.26736498	     52.56932492	     45.87237953	      0.00000000	      0.00000000	     -0.74493369	     -9.57806850	      0.17552751	     43.72860672	     45.85214293	      0.00000000	      0.00000000
     41.91500000	     -5.60433054	     -4.77915805	      6.22551109	      0.96815535	      0.91908714	      0.43240919	     -2.42651681	     -0.12203398	    -16.95522486	     19.67627153	     19.67627153	     16.61564497	      4.70652253	     -7.73812720	     27.17189584	     -4.13203044	      4.23580828	     29.65649845	     29.65649845	     10.70090030	    -14.81972847	      7.74921507	     -7.77924563	      3.33582320	      5.75633565	     48.06163055	    -15.94857976	    -12.51782411	     49.62894444	     45.97138424	      0.00000000	      0.00000000	      0.56915957	    -10.09156514	      2.28632161	     42.89685285	     45.66486067	      0.00000000	      0.00000000
